<svg width="602" height="43" viewBox="0 0 602 43" fill="none" xmlns="http://www.w3.org/2000/svg">
<path d="M0 10C0 4.47715 4.47715 0 10 0H592C597.523 0 602 4.47715 602 10V28H0V10Z" fill="#D5D5D5"/>
<circle cx="15.5" cy="15.5" r="7.5" fill="#D25656"/>
<circle cx="40.5" cy="15.5" r="7.5" fill="#D8D12F"/>
<circle cx="65.5" cy="15.5" r="7.5" fill="#56D26A"/>
<rect y="28" width="602" height="15" fill="#EDEDED"/>
<path d="M87.9061 21.0584C88.8813 13.5881 95.2462 8 102.78 8H171.22C178.754 8 185.119 13.5881 186.094 21.0584L187 28H87L87.9061 21.0584Z" fill="#EDEDED"/>
<path d="M187.906 21.0584C188.881 13.5881 195.246 8 202.78 8H271.22C278.754 8 285.119 13.5881 286.094 21.0584L287 28H187L187.906 21.0584Z" fill="#DEDEDE"/>
<path d="M287.906 21.0584C288.881 13.5881 295.246 8 302.78 8H371.22C378.754 8 385.119 13.5881 386.094 21.0584L387 28H287L287.906 21.0584Z" fill="#DEDEDE"/>
<path d="M387.906 21.0584C388.881 13.5881 395.246 8 402.78 8H471.22C478.754 8 485.119 13.5881 486.094 21.0584L487 28H387L387.906 21.0584Z" fill="#DEDEDE"/>
<path d="M487.906 21.0584C488.881 13.5881 495.246 8 502.78 8H571.22C578.754 8 585.119 13.5881 586.094 21.0584L587 28H487L487.906 21.0584Z" fill="#DEDEDE"/>
</svg>
